<!-- canonical source: https://github.com/lidel/avatar -->
<svg xmlns="http://www.w3.org/2000/svg" viewBox="0 0 800 800"><defs><filter id="a" color-interpolation-filters="sRGB"><feGaussianBlur result="result91" stdDeviation="5"/><feComposite in="SourceGraphic" in2="result91"/></filter></defs><g style="display:inline"><g style="fill:#242424;fill-opacity:1;stroke:none;filter:url(#a)"><path d="m45.7 88.6 114.3-60L725.7 217l2.9 362.9L160 768.6 46 710.8z" style="fill:#242424;fill-opacity:1;fill-rule:evenodd;stroke:none"/></g></g><path d="m44 89 116-59v739L45.6 711.4z" style="fill:#000;stroke:none;stroke-width:1px;stroke-linecap:butt;stroke-linejoin:miter;stroke-opacity:1;opacity:.1;fill-opacity:1"/><g style="display:inline;opacity:1"><path d="m160.5 111.9 563.4 149.3" style="fill:#222;fill-opacity:1;fill-rule:evenodd;stroke:#404040;stroke-width:8;stroke-linecap:butt;stroke-linejoin:miter;stroke-miterlimit:4;stroke-opacity:1;stroke-dasharray:none;marker-start:none"/><path d="m161.2 258.1 564.3 72m-564.8 82.5 566-.3" style="fill:none;stroke:#404040;stroke-width:8;stroke-linecap:butt;stroke-linejoin:miter;stroke-miterlimit:4;stroke-opacity:1;stroke-dasharray:none"/><path d="m160.5 565.1 565.8-81.3" style="fill:none;stroke:#404040;stroke-width:8;stroke-linecap:butt;stroke-linejoin:miter;stroke-miterlimit:4.0999999;stroke-opacity:1;stroke-dasharray:none"/><path d="m161.2 713.3 565-160.1" style="fill:none;stroke:#404040;stroke-width:8;stroke-linecap:butt;stroke-linejoin:miter;stroke-miterlimit:4;stroke-opacity:1;stroke-dasharray:none"/><path d="m381.5 105.4-.4 587.5" style="fill:none;stroke:#404040;stroke-width:12;stroke-linecap:butt;stroke-linejoin:miter;stroke-miterlimit:4;stroke-opacity:1;stroke-dasharray:none"/><path d="m534.2 155.2.5 487.4" style="fill:none;stroke:#404040;stroke-width:10;stroke-linecap:butt;stroke-linejoin:miter;stroke-miterlimit:4;stroke-opacity:1;stroke-dasharray:none;marker-end:none"/><path d="m639.2 189.7-.1 418.5" style="fill:none;stroke:#404040;stroke-width:8;stroke-linecap:butt;stroke-linejoin:miter;stroke-miterlimit:4;stroke-opacity:1;stroke-dasharray:none"/></g><g style="display:inline"><path d="M160 768.4V29.1M45.7 88.6l114.3-60L725.7 217l2.9 362.9L160 768.6 45.7 711.3z" style="fill:none;stroke:#000;stroke-width:2;stroke-linecap:butt;stroke-linejoin:miter;stroke-miterlimit:4;stroke-opacity:1;stroke-dasharray:none;stroke-dashoffset:0;display:inline"/></g><g style="opacity:1;display:inline"><path d="m174.5 410 4.2 3.8 40 35.2a1347 1347 0 0 0 33.6 27.6 629 629 0 0 0 31.4 22.7 349 349 0 0 0 26.3 15.4 222 222 0 0 0 24.9 10.7 151 151 0 0 0 26.5 6 112 112 0 0 0 30.5-.7 103 103 0 0 0 28.6-9.2 129 129 0 0 0 22-13.1 181 181 0 0 0 21-17.1 270 270 0 0 0 22.3-22.5 449 449 0 0 0 23-27.4 937 937 0 0 0 22-28l1.8-2.6 2-2.5 22.2-28.6A695 695 0 0 1 576 357a287 287 0 0 1 16.6-16.3 142 142 0 0 1 14.2-10.6 78 78 0 0 1 13.6-6.4 47 47 0 0 1 13-2 36 36 0 0 1 16.3 4 48 48 0 0 1 11.7 7.6 76 76 0 0 1 11.1 11 131 131 0 0 1 11.9 15.3 239 239 0 0 1 12.4 19.5 497 497 0 0 1 13.9 24.5l3 5.7" style="fill:none;stroke:gray;stroke-width:16;stroke-linecap:butt;stroke-linejoin:round;stroke-miterlimit:4;stroke-opacity:1;stroke-dasharray:8,8;stroke-dashoffset:1.60000000000000009;marker-start:none;marker-mid:none"/></g><g style="display:inline"><path d="m169.9 409.8 4.2-3.7 40.8-34.8a1364 1364 0 0 1 34-27.3 639 639 0 0 1 32-22.5 356 356 0 0 1 26.8-15.3 228 228 0 0 1 25.3-10.5 157 157 0 0 1 27-6 117 117 0 0 1 31 .7 108 108 0 0 1 31.6 10.4 138 138 0 0 1 22.4 13.4 192 192 0 0 1 21.2 17.3 286 286 0 0 1 22.5 22.6 477 477 0 0 1 23.4 27.2 1022 1022 0 0 1 20 25.3l2 2.5 2 2.4 22.6 28.4a694 694 0 0 0 19.6 22.4 287 287 0 0 0 16.8 16.2 143 143 0 0 0 14.5 10.5 80 80 0 0 0 13.8 6.3 49 49 0 0 0 14.6 1.9 39 39 0 0 0 16.6-4.6 51 51 0 0 0 11.8-7.9 82 82 0 0 0 11.2-11.1 138 138 0 0 0 12-15.5 252 252 0 0 0 13.7-21.3 575 575 0 0 0 14-24.4l1-1.9" style="fill:none;stroke:#fff;stroke-width:16;stroke-linecap:round;stroke-linejoin:round;stroke-miterlimit:4;stroke-opacity:1;stroke-dasharray:none;stroke-dashoffset:128.55140038;marker-start:none;marker-mid:none"/></g></svg>